ClarityCity-Bold.ufo
<glyph name="numbersign" format="1">
  <advance width="702"/>
  <unicode hex="0023"/>
  <outline>
    <contour>
      <point x="83" y="0" type="line"/>
      <point x="218" y="0" type="line"/>
      <point x="391" y="687" type="line"/>
      <point x="256" y="687" type="line"/>
    </contour>
    <contour>
      <point x="310" y="0" type="line"/>
      <point x="445" y="0" type="line"/>
      <point x="618" y="687" type="line"/>
      <point x="483" y="687" type="line"/>
    </contour>
    <contour>
      <point x="39" y="147" type="line"/>
      <point x="566" y="147" type="line"/>
      <point x="599" y="281" type="line"/>
      <point x="72" y="281" type="line"/>
    </contour>
    <contour>
      <point x="100" y="404" type="line"/>
      <point x="630" y="404" type="line"/>
      <point x="663" y="538" type="line"/>
      <point x="133" y="538" type="line"/>
    </contour>
  </outline>
</glyph>
<glyph name="parenleft" format="1">
  <advance width="394"/>
  <unicode hex="0028"/>
  <outline>
    <contour>
      <point x="271" y="-170" type="curve"/>
      <point x="368" y="-67" type="line"/>
      <point x="268" y="36"/>
      <point x="226" y="133"/>
      <point x="226" y="265" type="curve" smooth="yes"/>
      <point x="226" y="398"/>
      <point x="268" y="495"/>
      <point x="368" y="598" type="curve"/>
      <point x="271" y="700" type="line"/>
      <point x="125" y="604"/>
      <point x="37" y="447"/>
      <point x="37" y="265" type="curve" smooth="yes"/>
      <point x="37" y="84"/>
      <point x="125" y="-74"/>
    </contour>
  </outline>
</glyph>
<glyph name="asterisk" format="1">
  <advance width="449"/>
  <unicode hex="002A"/>
  <outline>
    <contour>
      <point x="225" y="325" type="curve" smooth="yes"/>
      <point x="251" y="325"/>
      <point x="272" y="345"/>
      <point x="272" y="368" type="curve" smooth="yes"/>
      <point x="272" y="400"/>
      <point x="251" y="444"/>
      <point x="246" y="476" type="curve"/>
      <point x="271" y="456"/>
      <point x="299" y="416"/>
      <point x="326" y="400" type="curve" smooth="yes"/>
      <point x="346" y="388"/>
      <point x="374" y="396"/>
      <point x="387" y="419" type="curve" smooth="yes"/>
      <point x="400" y="442"/>
      <point x="393" y="470"/>
      <point x="373" y="481" type="curve" smooth="yes"/>
      <point x="346" y="497"/>
      <point x="298" y="502"/>
      <point x="267" y="514" type="curve"/>
      <point x="297" y="526"/>
      <point x="346" y="530"/>
      <point x="373" y="546" type="curve" smooth="yes"/>
      <point x="393" y="557"/>
      <point x="400" y="585"/>
      <point x="387" y="608" type="curve" smooth="yes"/>
      <point x="374" y="631"/>
      <point x="346" y="639"/>
      <point x="326" y="627" type="curve" smooth="yes"/>
      <point x="299" y="611"/>
      <point x="271" y="572"/>
      <point x="245" y="552" type="curve"/>
      <point x="250" y="584"/>
      <point x="271" y="628"/>
      <point x="271" y="660" type="curve" smooth="yes"/>
      <point x="271" y="683"/>
      <point x="250" y="703"/>
      <point x="224" y="703" type="curve" smooth="yes"/>
      <point x="198" y="703"/>
      <point x="177" y="683"/>
      <point x="177" y="660" type="curve" smooth="yes"/>
      <point x="177" y="628"/>
      <point x="197" y="584"/>
      <point x="202" y="552" type="curve"/>
      <point x="177" y="572"/>
      <point x="149" y="612"/>
      <point x="122" y="628" type="curve" smooth="yes"/>
      <point x="102" y="640"/>
      <point x="74" y="632"/>
      <point x="61" y="609" type="curve" smooth="yes"/>
      <point x="48" y="586"/>
      <point x="55" y="558"/>
      <point x="75" y="547" type="curve" smooth="yes"/>
      <point x="102" y="531"/>
      <point x="149" y="526"/>
      <point x="180" y="514" type="curve"/>
      <point x="150" y="502"/>
      <point x="102" y="498"/>
      <point x="75" y="482" type="curve" smooth="yes"/>
      <point x="55" y="471"/>
      <point x="48" y="443"/>
      <point x="61" y="420" type="curve" smooth="yes"/>
      <point x="74" y="397"/>
      <point x="102" y="389"/>
      <point x="122" y="401" type="curve" smooth="yes"/>
      <point x="149" y="417"/>
      <point x="176" y="456"/>
      <point x="202" y="476" type="curve"/>
      <point x="197" y="444"/>
      <point x="178" y="400"/>
      <point x="178" y="368" type="curve" smooth="yes"/>
      <point x="178" y="345"/>
      <point x="199" y="325"/>
    </contour>
  </outline>
</glyph>
<glyph name="comma" format="1">
  <advance width="336"/>
  <unicode hex="002C"/>
  <outline>
    <contour>
      <point x="155" y="-155" type="line"/>
      <point x="234" y="-89"/>
      <point x="280" y="-8"/>
      <point x="280" y="65" type="curve" smooth="yes"/>
      <point x="280" y="155"/>
      <point x="231" y="219"/>
      <point x="162" y="219" type="curve" smooth="yes"/>
      <point x="101" y="219"/>
      <point x="49" y="166"/>
      <point x="49" y="102" type="curve" smooth="yes"/>
      <point x="49" y="40"/>
      <point x="99" y="-12"/>
      <point x="159" y="-12" type="curve"/>
      <point x="150" y="-45"/>
      <point x="126" y="-80"/>
      <point x="92" y="-107" type="curve"/>
    </contour>
  </outline>
</glyph>
<glyph name="three" format="1">
  <advance width="640"/>
  <unicode hex="0033"/>
  <outline>
    <contour>
      <point x="319" y="-13" type="curve" smooth="yes"/>
      <point x="491" y="-13"/>
      <point x="601" y="74"/>
      <point x="601" y="196" type="curve" smooth="yes"/>
      <point x="601" y="281"/>
      <point x="538" y="336"/>
      <point x="460" y="354" type="curve"/>
      <point x="538" y="377"/>
      <point x="586" y="436"/>
      <point x="586" y="510" type="curve" smooth="yes"/>
      <point x="586" y="618"/>
      <point x="488" y="699"/>
      <point x="318" y="699" type="curve" smooth="yes"/>
      <point x="186" y="699"/>
      <point x="100" y="646"/>
      <point x="40" y="577" type="curve"/>
      <point x="147" y="458" type="line"/>
      <point x="191" y="499"/>
      <point x="240" y="526"/>
      <point x="297" y="526" type="curve" smooth="yes"/>
      <point x="353" y="526"/>
      <point x="388" y="507"/>
      <point x="388" y="473" type="curve" smooth="yes"/>
      <point x="388" y="442"/>
      <point x="359" y="425"/>
      <point x="295" y="425" type="curve" smooth="yes"/>
      <point x="213" y="425" type="line"/>
      <point x="213" y="263" type="line"/>
      <point x="296" y="264" type="line" smooth="yes"/>
      <point x="378" y="265"/>
      <point x="401" y="247"/>
      <point x="401" y="214" type="curve" smooth="yes"/>
      <point x="401" y="183"/>
      <point x="370" y="160"/>
      <point x="308" y="160" type="curve" smooth="yes"/>
      <point x="249" y="160"/>
      <point x="185" y="182"/>
      <point x="134" y="230" type="curve"/>
      <point x="25" y="101" type="line"/>
      <point x="89" y="33"/>
      <point x="188" y="-13"/>
    </contour>
  </outline>
</glyph>
<glyph name="five" format="1">
  <advance width="641"/>
  <unicode hex="0035"/>
  <outline>
    <contour>
      <point x="310" y="-13" type="curve" smooth="yes"/>
      <point x="490" y="-13"/>
      <point x="603" y="82"/>
      <point x="603" y="234" type="curve" smooth="yes"/>
      <point x="603" y="376"/>
      <point x="496" y="454"/>
      <point x="376" y="454" type="curve" smooth="yes"/>
      <point x="324" y="454"/>
      <point x="282" y="439"/>
      <point x="250" y="416" type="curve"/>
      <point x="253" y="514" type="line"/>
      <point x="565" y="514" type="line"/>
      <point x="565" y="687" type="line"/>
      <point x="76" y="687" type="line"/>
      <point x="66" y="304" type="line"/>
      <point x="193" y="256" type="line"/>
      <point x="226" y="282"/>
      <point x="266" y="296"/>
      <point x="313" y="296" type="curve" smooth="yes"/>
      <point x="374" y="296"/>
      <point x="410" y="269"/>
      <point x="410" y="227" type="curve" smooth="yes"/>
      <point x="410" y="188"/>
      <point x="376" y="154"/>
      <point x="310" y="154" type="curve" smooth="yes"/>
      <point x="251" y="154"/>
      <point x="190" y="183"/>
      <point x="139" y="226" type="curve"/>
      <point x="29" y="90" type="line"/>
      <point x="98" y="26"/>
      <point x="189" y="-13"/>
    </contour>
  </outline>
</glyph>
<glyph name="seven" format="1">
  <advance width="608"/>
  <unicode hex="0037"/>
  <outline>
    <contour>
      <point x="92" y="0" type="line"/>
      <point x="310" y="0" type="line"/>
      <point x="575" y="541" type="line"/>
      <point x="575" y="687" type="line"/>
      <point x="33" y="687" type="line"/>
      <point x="33" y="514" type="line"/>
      <point x="352" y="514" type="line"/>
    </contour>
  </outline>
</glyph>
<glyph name="eight" format="1">
  <advance width="661"/>
  <unicode hex="0038"/>
  <outline>
    <contour>
      <point x="330" y="-12" type="curve" smooth="yes"/>
      <point x="488" y="-12"/>
      <point x="623" y="56"/>
      <point x="623" y="187" type="curve" smooth="yes"/>
      <point x="623" y="261"/>
      <point x="578" y="320"/>
      <point x="499" y="355" type="curve"/>
      <point x="566" y="387"/>
      <point x="605" y="437"/>
      <point x="605" y="510" type="curve" smooth="yes"/>
      <point x="605" y="631"/>
      <point x="477" y="699"/>
      <point x="330" y="699" type="curve" smooth="yes"/>
      <point x="186" y="699"/>
      <point x="56" y="634"/>
      <point x="56" y="509" type="curve" smooth="yes"/>
      <point x="56" y="432"/>
      <point x="100" y="384"/>
      <point x="161" y="355" type="curve"/>
      <point x="86" y="323"/>
      <point x="38" y="265"/>
      <point x="38" y="187" type="curve" smooth="yes"/>
      <point x="38" y="57"/>
      <point x="171" y="-12"/>
    </contour>
    <contour>
      <point x="330" y="148" type="curve" smooth="yes"/>
      <point x="271" y="148"/>
      <point x="234" y="173"/>
      <point x="234" y="210" type="curve" smooth="yes"/>
      <point x="234" y="245"/>
      <point x="279" y="269"/>
      <point x="330" y="272" type="curve"/>
      <point x="381" y="269"/>
      <point x="427" y="245"/>
      <point x="427" y="210" type="curve" smooth="yes"/>
      <point x="427" y="173"/>
      <point x="388" y="148"/>
    </contour>
    <contour>
      <point x="330" y="420" type="curve"/>
      <point x="284" y="423"/>
      <point x="247" y="448"/>
      <point x="247" y="482" type="curve" smooth="yes"/>
      <point x="247" y="514"/>
      <point x="278" y="540"/>
      <point x="330" y="540" type="curve" smooth="yes"/>
      <point x="382" y="540"/>
      <point x="414" y="514"/>
      <point x="414" y="482" type="curve" smooth="yes"/>
      <point x="414" y="449"/>
      <point x="376" y="423"/>
    </contour>
  </outline>
</glyph>
<glyph name="less" format="1">
  <advance width="601"/>
  <unicode hex="003C"/>
  <outline>
    <contour>
      <point x="531" y="78" type="line"/>
      <point x="531" y="229" type="line"/>
      <point x="200" y="343" type="line"/>
      <point x="531" y="459" type="line"/>
      <point x="531" y="609" type="line"/>
      <point x="56" y="420" type="line"/>
      <point x="56" y="267" type="line"/>
    </contour>
  </outline>
</glyph>
<glyph name="equal" format="1">
  <advance width="675"/>
  <unicode hex="003D"/>
  <outline>
    <contour>
      <point x="88" y="382" type="line"/>
      <point x="587" y="382" type="line"/>
      <point x="587" y="531" type="line"/>
      <point x="88" y="531" type="line"/>
    </contour>
    <contour>
      <point x="88" y="148" type="line"/>
      <point x="587" y="148" type="line"/>
      <point x="587" y="297" type="line"/>
      <point x="88" y="297" type="line"/>
    </contour>
  </outline>
</glyph>
<glyph name="B" format="1">
  <advance width="734"/>
  <unicode hex="0042"/>
  <outline>
    <contour>
      <point x="73" y="0" type="line"/>
      <point x="457" y="0" type="line" smooth="yes"/>
      <point x="597" y="0"/>
      <point x="697" y="75"/>
      <point x="697" y="185" type="curve" smooth="yes"/>
      <point x="697" y="261"/>
      <point x="650" y="326"/>
      <point x="570" y="360" type="curve"/>
      <point x="630" y="389"/>
      <point x="665" y="447"/>
      <point x="665" y="514" type="curve" smooth="yes"/>
      <point x="665" y="614"/>
      <point x="574" y="687"/>
      <point x="443" y="687" type="curve" smooth="yes"/>
      <point x="73" y="687" type="line"/>
    </contour>
    <contour>
      <point x="266" y="163" type="line"/>
      <point x="266" y="273" type="line"/>
      <point x="425" y="273" type="line" smooth="yes"/>
      <point x="467" y="273"/>
      <point x="497" y="250"/>
      <point x="497" y="218" type="curve" smooth="yes"/>
      <point x="497" y="186"/>
      <point x="467" y="163"/>
      <point x="425" y="163" type="curve" smooth="yes"/>
    </contour>
    <contour>
      <point x="266" y="420" type="line"/>
      <point x="266" y="524" type="line"/>
      <point x="396" y="524" type="line" smooth="yes"/>
      <point x="436" y="524"/>
      <point x="465" y="502"/>
      <point x="465" y="472" type="curve" smooth="yes"/>
      <point x="465" y="442"/>
      <point x="436" y="420"/>
      <point x="396" y="420" type="curve" smooth="yes"/>
    </contour>
  </outline>
</glyph>
<glyph name="H" format="1">
  <advance width="785"/>
  <unicode hex="0048"/>
  <outline>
    <contour>
      <point x="73" y="0" type="line"/>
      <point x="267" y="0" type="line"/>
      <point x="267" y="315" type="line"/>
      <point x="220" y="264" type="line"/>
      <point x="564" y="264" type="line"/>
      <point x="518" y="315" type="line"/>
      <point x="518" y="0" type="line"/>
      <point x="712" y="0" type="line"/>
      <point x="712" y="687" type="line"/>
      <point x="518" y="687" type="line"/>
      <point x="518" y="385" type="line"/>
      <point x="566" y="437" type="line"/>
      <point x="220" y="437" type="line"/>
      <point x="267" y="385" type="line"/>
      <point x="267" y="687" type="line"/>
      <point x="73" y="687" type="line"/>
    </contour>
  </outline>
</glyph>
<glyph name="I" format="1">
  <advance width="340"/>
  <unicode hex="0049"/>
  <outline>
    <contour>
      <point x="73" y="0" type="line"/>
      <point x="267" y="0" type="line"/>
      <point x="267" y="687" type="line"/>
      <point x="73" y="687" type="line"/>
    </contour>
    <contour>
      <point x="267" y="0" type="move" name="bottom"/>
    </contour>
    <contour>
      <point x="170" y="687" type="move" name="top"/>
    </contour>
  </outline>
</glyph>
<glyph name="J" format="1">
  <advance width="582"/>
  <unicode hex="004A"/>
  <outline>
    <contour>
      <point x="269" y="-12" type="curve" smooth="yes"/>
      <point x="415" y="-12"/>
      <point x="518" y="86"/>
      <point x="518" y="224" type="curve" smooth="yes"/>
      <point x="518" y="687" type="line"/>
      <point x="324" y="687" type="line"/>
      <point x="324" y="244" type="line" smooth="yes"/>
      <point x="324" y="197"/>
      <point x="290" y="164"/>
      <point x="243" y="164" type="curve" smooth="yes"/>
      <point x="208" y="164"/>
      <point x="170" y="189"/>
      <point x="151" y="224" type="curve"/>
      <point x="26" y="102" type="line"/>
      <point x="75" y="35"/>
      <point x="176" y="-12"/>
    </contour>
  </outline>
</glyph>
<glyph name="K" format="1">
  <advance width="772"/>
  <unicode hex="004B"/>
  <outline>
    <contour>
      <point x="73" y="0" type="line"/>
      <point x="267" y="0" type="line"/>
      <point x="267" y="182" type="line"/>
      <point x="338" y="260" type="line"/>
      <point x="515" y="0" type="line"/>
      <point x="747" y="0" type="line"/>
      <point x="473" y="400" type="line"/>
      <point x="727" y="687" type="line"/>
      <point x="498" y="687" type="line"/>
      <point x="267" y="416" type="line"/>
      <point x="267" y="687" type="line"/>
      <point x="73" y="687" type="line"/>
    </contour>
    <contour>
      <point x="410" y="0" type="move" name="bottom"/>
    </contour>
  </outline>
</glyph>
<glyph name="N" format="1">
  <advance width="802"/>
  <unicode hex="004E"/>
  <outline>
    <contour>
      <point x="73" y="0" type="line"/>
      <point x="267" y="0" type="line"/>
      <point x="267" y="368" type="line"/>
      <point x="535" y="0" type="line"/>
      <point x="729" y="0" type="line"/>
      <point x="729" y="687" type="line"/>
      <point x="535" y="687" type="line"/>
      <point x="535" y="319" type="line"/>
      <point x="267" y="687" type="line"/>
      <point x="73" y="687" type="line"/>
    </contour>
    <contour>
      <point x="401" y="0" type="move" name="bottom"/>
    </contour>
    <contour>
      <point x="401" y="687" type="move" name="top"/>
    </contour>
  </outline>
</glyph>
<glyph name="O" format="1">
  <advance width="828"/>
  <unicode hex="004F"/>
  <outline>
    <contour>
      <point x="414" y="-12" type="curve" smooth="yes"/>
      <point x="617" y="-12"/>
      <point x="788" y="151"/>
      <point x="788" y="344" type="curve" smooth="yes"/>
      <point x="788" y="537"/>
      <point x="617" y="699"/>
      <point x="414" y="699" type="curve" smooth="yes"/>
      <point x="211" y="699"/>
      <point x="40" y="537"/>
      <point x="40" y="344" type="curve" smooth="yes"/>
      <point x="40" y="151"/>
      <point x="211" y="-12"/>
    </contour>
    <contour>
      <point x="414" y="164" type="curve" smooth="yes"/>
      <point x="320" y="164"/>
      <point x="240" y="246"/>
      <point x="240" y="344" type="curve" smooth="yes"/>
      <point x="240" y="441"/>
      <point x="320" y="523"/>
      <point x="414" y="523" type="curve" smooth="yes"/>
      <point x="508" y="523"/>
      <point x="588" y="441"/>
      <point x="588" y="344" type="curve" smooth="yes"/>
      <point x="588" y="246"/>
      <point x="508" y="164"/>
    </contour>
    <contour>
      <point x="414" y="687" type="move" name="top"/>
    </contour>
  </outline>
</glyph>
<glyph name="P" format="1">
  <advance width="702"/>
  <unicode hex="0050"/>
  <outline>
    <contour>
      <point x="73" y="0" type="line"/>
      <point x="267" y="0" type="line"/>
      <point x="267" y="207" type="line"/>
      <point x="402" y="207" type="line" smooth="yes"/>
      <point x="556" y="207"/>
      <point x="665" y="306"/>
      <point x="665" y="447" type="curve" smooth="yes"/>
      <point x="665" y="588"/>
      <point x="556" y="687"/>
      <point x="402" y="687" type="curve" smooth="yes"/>
      <point x="73" y="687" type="line"/>
    </contour>
    <contour>
      <point x="267" y="383" type="line"/>
      <point x="267" y="511" type="line"/>
      <point x="386" y="511" type="line" smooth="yes"/>
      <point x="432" y="511"/>
      <point x="465" y="484"/>
      <point x="465" y="447" type="curve" smooth="yes"/>
      <point x="465" y="410"/>
      <point x="432" y="383"/>
      <point x="386" y="383" type="curve" smooth="yes"/>
    </contour>
  </outline>
</glyph>
<glyph name="bracketleft" format="1">
  <advance width="401"/>
  <unicode hex="005B"/>
  <outline>
    <contour>
      <point x="70" y="-160" type="line"/>
      <point x="365" y="-160" type="line"/>
      <point x="365" y="-39" type="line"/>
      <point x="217" y="-39" type="line"/>
      <point x="217" y="568" type="line"/>
      <point x="365" y="568" type="line"/>
      <point x="365" y="689" type="line"/>
      <point x="70" y="689" type="line"/>
    </contour>
  </outline>
</glyph>
<glyph name="bracketright" format="1">
  <advance width="401"/>
  <unicode hex="005D"/>
  <outline>
    <contour>
      <point x="36" y="-160" type="line"/>
      <point x="331" y="-160" type="line"/>
      <point x="331" y="689" type="line"/>
      <point x="36" y="689" type="line"/>
      <point x="36" y="568" type="line"/>
      <point x="184" y="568" type="line"/>
      <point x="184" y="-39" type="line"/>
      <point x="36" y="-39" type="line"/>
    </contour>
  </outline>
</glyph>
<glyph name="a" format="1">
  <advance width="586"/>
  <unicode hex="0061"/>
  <outline>
    <contour>
      <point x="353" y="0" type="line"/>
      <point x="538" y="0" type="line"/>
      <point x="538" y="305" type="line" smooth="yes"/>
      <point x="538" y="446"/>
      <point x="430" y="529"/>
      <point x="299" y="529" type="curve" smooth="yes"/>
      <point x="212" y="529"/>
      <point x="135" y="504"/>
      <point x="63" y="468" type="curve"/>
      <point x="124" y="347" type="line"/>
      <point x="162" y="366"/>
      <point x="202" y="376"/>
      <point x="247" y="376" type="curve" smooth="yes"/>
      <point x="314" y="376"/>
      <point x="353" y="350"/>
      <point x="353" y="305" type="curve" smooth="yes"/>
    </contour>
    <contour>
      <point x="220" y="-12" type="curve" smooth="yes"/>
      <point x="300" y="-12"/>
      <point x="379" y="34"/>
      <point x="399" y="113" type="curve"/>
      <point x="353" y="163" type="line"/>
      <point x="349" y="133"/>
      <point x="314" y="112"/>
      <point x="267" y="112" type="curve" smooth="yes"/>
      <point x="232" y="112"/>
      <point x="206" y="131"/>
      <point x="206" y="158" type="curve" smooth="yes"/>
      <point x="206" y="187"/>
      <point x="234" y="208"/>
      <point x="271" y="208" type="curve" smooth="yes"/>
      <point x="301" y="208"/>
      <point x="331" y="201"/>
      <point x="354" y="188" type="curve"/>
      <point x="405" y="274" type="line"/>
      <point x="354" y="308"/>
      <point x="294" y="325"/>
      <point x="244" y="325" type="curve" smooth="yes"/>
      <point x="119" y="325"/>
      <point x="23" y="254"/>
      <point x="23" y="153" type="curve" smooth="yes"/>
      <point x="23" y="56"/>
      <point x="109" y="-12"/>
    </contour>
    <contour>
      <point x="538" y="0" type="move" name="bottom"/>
    </contour>
    <contour>
      <point x="299" y="517" type="move" name="top"/>
    </contour>
  </outline>
</glyph>
<glyph name="f" format="1">
  <advance width="401"/>
  <unicode hex="0066"/>
  <outline>
    <contour>
      <point x="90" y="0" type="line"/>
      <point x="274" y="0" type="line"/>
      <point x="274" y="517" type="line" smooth="yes"/>
      <point x="274" y="548"/>
      <point x="292" y="570"/>
      <point x="318" y="570" type="curve" smooth="yes"/>
      <point x="336" y="570"/>
      <point x="355" y="564"/>
      <point x="365" y="555" type="curve"/>
      <point x="398" y="667" type="line"/>
      <point x="366" y="698"/>
      <point x="311" y="720"/>
      <point x="265" y="720" type="curve" smooth="yes"/>
      <point x="162" y="720"/>
      <point x="90" y="648"/>
      <point x="90" y="545" type="curve" smooth="yes"/>
    </contour>
    <contour>
      <point x="25" y="365" type="line"/>
      <point x="376" y="365" type="line"/>
      <point x="376" y="517" type="line"/>
      <point x="25" y="517" type="line"/>
    </contour>
  </outline>
</glyph>
<glyph name="g" format="1">
  <advance width="665"/>
  <unicode hex="0067"/>
  <outline>
    <contour>
      <point x="413" y="517" type="line"/>
      <point x="413" y="65" type="line" smooth="yes"/>
      <point x="413" y="21"/>
      <point x="359" y="-12"/>
      <point x="282" y="-12" type="curve" smooth="yes"/>
      <point x="225" y="-12"/>
      <point x="165" y="5"/>
      <point x="135" y="30" type="curve"/>
      <point x="72" y="-103" type="line"/>
      <point x="127" y="-143"/>
      <point x="217" y="-172"/>
      <point x="313" y="-172" type="curve" smooth="yes"/>
      <point x="485" y="-172"/>
      <point x="607" y="-78"/>
      <point x="607" y="55" type="curve" smooth="yes"/>
      <point x="607" y="517" type="line"/>
    </contour>
    <contour>
      <point x="320" y="198" type="curve" smooth="yes"/>
      <point x="266" y="198"/>
      <point x="227" y="234"/>
      <point x="227" y="284" type="curve" smooth="yes"/>
      <point x="227" y="334"/>
      <point x="266" y="369"/>
      <point x="320" y="369" type="curve" smooth="yes"/>
      <point x="374" y="369"/>
      <point x="413" y="334"/>
      <point x="413" y="284" type="curve" smooth="yes"/>
      <point x="413" y="234"/>
      <point x="374" y="198"/>
    </contour>
    <contour>
      <point x="432" y="129" type="curve"/>
      <point x="426" y="439" type="line"/>
      <point x="403" y="489"/>
      <point x="325" y="529"/>
      <point x="253" y="529" type="curve" smooth="yes"/>
      <point x="128" y="529"/>
      <point x="29" y="428"/>
      <point x="29" y="284" type="curve" smooth="yes"/>
      <point x="29" y="140"/>
      <point x="128" y="38"/>
      <point x="253" y="38" type="curve" smooth="yes"/>
      <point x="323" y="38"/>
      <point x="392" y="72"/>
    </contour>
    <contour>
      <point x="313" y="-172" type="move" name="bottom"/>
    </contour>
    <contour>
      <point x="320" y="517" type="move" name="top"/>
    </contour>
  </outline>
</glyph>
<glyph name="l" format="1">
  <advance width="311"/>
  <unicode hex="006C"/>
  <outline>
    <component base="ascender"/>
    <contour>
      <point x="244" y="0" type="move" name="bottom"/>
    </contour>
    <contour>
      <point x="155" y="699" type="move" name="top"/>
    </contour>
  </outline>
</glyph>
<glyph name="s" format="1">
  <advance width="519"/>
  <unicode hex="0073"/>
  <outline>
    <contour>
      <point x="267" y="-12" type="curve" smooth="yes"/>
      <point x="407" y="-12"/>
      <point x="492" y="56"/>
      <point x="492" y="163" type="curve" smooth="yes"/>
      <point x="492" y="285"/>
      <point x="384" y="316"/>
      <point x="290" y="337" type="curve" smooth="yes"/>
      <point x="238" y="349"/>
      <point x="215" y="352"/>
      <point x="215" y="369" type="curve" smooth="yes"/>
      <point x="215" y="384"/>
      <point x="233" y="398"/>
      <point x="260" y="398" type="curve" smooth="yes"/>
      <point x="309" y="398"/>
      <point x="368" y="371"/>
      <point x="411" y="343" type="curve"/>
      <point x="476" y="461" type="line"/>
      <point x="417" y="500"/>
      <point x="340" y="529"/>
      <point x="260" y="529" type="curve" smooth="yes"/>
      <point x="125" y="529"/>
      <point x="44" y="451"/>
      <point x="44" y="351" type="curve" smooth="yes"/>
      <point x="44" y="229"/>
      <point x="149" y="206"/>
      <point x="243" y="186" type="curve" smooth="yes"/>
      <point x="291" y="176"/>
      <point x="321" y="166"/>
      <point x="321" y="148" type="curve" smooth="yes"/>
      <point x="321" y="131"/>
      <point x="308" y="122"/>
      <point x="272" y="122" type="curve" smooth="yes"/>
      <point x="217" y="122"/>
      <point x="143" y="148"/>
      <point x="93" y="183" type="curve"/>
      <point x="21" y="66" type="line"/>
      <point x="84" y="17"/>
      <point x="177" y="-12"/>
    </contour>
    <contour>
      <point x="261" y="0" type="move" name="bottom"/>
    </contour>
    <contour>
      <point x="260" y="517" type="move" name="top"/>
    </contour>
  </outline>
</glyph>
<glyph name="t" format="1">
  <advance width="425"/>
  <unicode hex="0074"/>
  <outline>
    <contour>
      <point x="264" y="-12" type="curve" smooth="yes"/>
      <point x="310" y="-12"/>
      <point x="365" y="10"/>
      <point x="397" y="41" type="curve"/>
      <point x="364" y="163" type="line"/>
      <point x="354" y="154"/>
      <point x="335" y="148"/>
      <point x="317" y="148" type="curve" smooth="yes"/>
      <point x="291" y="148"/>
      <point x="273" y="170"/>
      <point x="273" y="201" type="curve" smooth="yes"/>
      <point x="273" y="659" type="line"/>
      <point x="89" y="659" type="line"/>
      <point x="89" y="163" type="line" smooth="yes"/>
      <point x="89" y="60"/>
      <point x="161" y="-12"/>
    </contour>
    <contour>
      <point x="24" y="365" type="line"/>
      <point x="375" y="365" type="line"/>
      <point x="375" y="517" type="line"/>
      <point x="24" y="517" type="line"/>
    </contour>
    <contour>
      <point x="266" y="0" type="move" name="bottom"/>
    </contour>
  </outline>
</glyph>
<glyph name="braceleft" format="1">
  <advance width="422"/>
  <unicode hex="007B"/>
  <outline>
    <contour>
      <point x="374" y="-166" type="curve"/>
      <point x="389" y="-53" type="line"/>
      <point x="290" y="-41"/>
      <point x="267" y="-25"/>
      <point x="267" y="39" type="curve" smooth="yes"/>
      <point x="268" y="153" type="line" smooth="yes"/>
      <point x="268" y="211"/>
      <point x="242" y="249"/>
      <point x="189" y="266" type="curve"/>
      <point x="242" y="283"/>
      <point x="268" y="321"/>
      <point x="268" y="378" type="curve" smooth="yes"/>
      <point x="267" y="493" type="line" smooth="yes"/>
      <point x="267" y="556"/>
      <point x="288" y="572"/>
      <point x="389" y="584" type="curve"/>
      <point x="374" y="697" type="line"/>
      <point x="193" y="685"/>
      <point x="120" y="629"/>
      <point x="120" y="508" type="curve" smooth="yes"/>
      <point x="122" y="402" type="line" smooth="yes"/>
      <point x="122" y="345"/>
      <point x="96" y="321"/>
      <point x="28" y="321" type="curve"/>
      <point x="28" y="211" type="line"/>
      <point x="94" y="211"/>
      <point x="122" y="187"/>
      <point x="122" y="130" type="curve" smooth="yes"/>
      <point x="120" y="23" type="line" smooth="yes"/>
      <point x="120" y="-97"/>
      <point x="192" y="-154"/>
    </contour>
  </outline>
</glyph>
<glyph name="registered" format="1">
  <advance width="607"/>
  <unicode hex="00AE"/>
  <outline>
    <contour>
      <point x="304" y="184" type="curve" smooth="yes"/>
      <point x="439" y="184"/>
      <point x="550" y="295"/>
      <point x="550" y="430" type="curve" smooth="yes"/>
      <point x="550" y="565"/>
      <point x="439" y="675"/>
      <point x="304" y="675" type="curve" smooth="yes"/>
      <point x="168" y="675"/>
      <point x="57" y="565"/>
      <point x="57" y="430" type="curve" smooth="yes"/>
      <point x="57" y="295"/>
      <point x="168" y="184"/>
    </contour>
    <contour>
      <point x="304" y="226" type="curve" smooth="yes"/>
      <point x="191" y="226"/>
      <point x="99" y="317"/>
      <point x="99" y="430" type="curve" smooth="yes"/>
      <point x="99" y="542"/>
      <point x="191" y="633"/>
      <point x="304" y="633" type="curve" smooth="yes"/>
      <point x="417" y="633"/>
      <point x="508" y="542"/>
      <point x="508" y="430" type="curve" smooth="yes"/>
      <point x="508" y="317"/>
      <point x="417" y="226"/>
    </contour>
    <contour>
      <point x="343" y="280" type="line"/>
      <point x="439" y="280" type="line"/>
      <point x="357" y="398" type="line"/>
      <point x="260" y="398" type="line"/>
    </contour>
    <contour>
      <point x="265" y="458" type="line"/>
      <point x="265" y="494" type="line"/>
      <point x="313" y="494" type="line" smooth="yes"/>
      <point x="327" y="494"/>
      <point x="336" y="487"/>
      <point x="336" y="476" type="curve" smooth="yes"/>
      <point x="336" y="465"/>
      <point x="327" y="458"/>
      <point x="313" y="458" type="curve" smooth="yes"/>
    </contour>
    <contour>
      <point x="180" y="280" type="line"/>
      <point x="265" y="280" type="line"/>
      <point x="265" y="371" type="line"/>
      <point x="313" y="371" type="line" smooth="yes"/>
      <point x="381" y="371"/>
      <point x="433" y="414"/>
      <point x="433" y="476" type="curve" smooth="yes"/>
      <point x="433" y="537"/>
      <point x="381" y="580"/>
      <point x="313" y="580" type="curve" smooth="yes"/>
      <point x="180" y="580" type="line"/>
    </contour>
  </outline>
</glyph>
<glyph name="cedilla" format="1">
  <advance width="273"/>
  <unicode hex="00B8"/>
  <outline>
    <contour>
      <point x="124" y="-200" type="curve" smooth="yes"/>
      <point x="191" y="-200"/>
      <point x="239" y="-167"/>
      <point x="239" y="-111" type="curve" smooth="yes"/>
      <point x="239" y="-71"/>
      <point x="207" y="-42"/>
      <point x="161" y="-42" type="curve" smooth="yes"/>
      <point x="141" y="-42"/>
      <point x="101" y="-50"/>
      <point x="79" y="-62" type="curve"/>
      <point x="158" y="-62" type="line"/>
      <point x="189" y="11" type="line"/>
      <point x="100" y="11" type="line"/>
      <point x="69" y="-62" type="line"/>
      <point x="95" y="-86" type="line"/>
      <point x="103" y="-81"/>
      <point x="113" y="-78"/>
      <point x="122" y="-78" type="curve" smooth="yes"/>
      <point x="139" y="-78"/>
      <point x="150" y="-86"/>
      <point x="150" y="-100" type="curve" smooth="yes"/>
      <point x="150" y="-116"/>
      <point x="133" y="-125"/>
      <point x="114" y="-125" type="curve" smooth="yes"/>
      <point x="94" y="-125"/>
      <point x="73" y="-116"/>
      <point x="56" y="-102" type="curve"/>
      <point x="25" y="-170" type="line"/>
      <point x="48" y="-187"/>
      <point x="86" y="-200"/>
    </contour>
    <contour>
      <point x="140" y="0" type="move" name="_bottom"/>
    </contour>
  </outline>
</glyph>
<glyph name="AE" format="1">
  <advance width="1155"/>
  <unicode hex="00C6"/>
  <outline>
    <contour>
      <point x="25" y="0" type="line"/>
      <point x="249" y="0" type="line"/>
      <point x="302" y="92" type="line"/>
      <point x="546" y="92" type="line"/>
      <point x="546" y="0" type="line"/>
      <point x="1099" y="0" type="line"/>
      <point x="1099" y="173" type="line"/>
      <point x="740" y="173" type="line"/>
      <point x="740" y="264" type="line"/>
      <point x="1067" y="264" type="line"/>
      <point x="1067" y="437" type="line"/>
      <point x="740" y="437" type="line"/>
      <point x="740" y="514" type="line"/>
      <point x="1099" y="514" type="line"/>
      <point x="1099" y="687" type="line"/>
      <point x="422" y="687" type="line"/>
    </contour>
    <contour>
      <point x="385" y="235" type="line"/>
      <point x="546" y="514" type="line"/>
      <point x="546" y="235" type="line"/>
    </contour>
  </outline>
</glyph>
<glyph name="Eth" format="1">
  <advance width="834"/>
  <unicode hex="00D0"/>
  <outline>
    <contour>
      <point x="38" y="258" type="line"/>
      <point x="436" y="258" type="line"/>
      <point x="437" y="431" type="line"/>
      <point x="38" y="431" type="line"/>
    </contour>
    <component base="D" xOffset="56"/>
  </outline>
</glyph>
<glyph name="multiply" format="1">
  <advance width="561"/>
  <unicode hex="00D7"/>
  <outline>
    <contour>
      <point x="157" y="104" type="line"/>
      <point x="510" y="457" type="line"/>
      <point x="404" y="563" type="line"/>
      <point x="51" y="210" type="line"/>
    </contour>
    <contour>
      <point x="401" y="101" type="line"/>
      <point x="514" y="214" type="line"/>
      <point x="161" y="567" type="line"/>
      <point x="48" y="454" type="line"/>
    </contour>
  </outline>
</glyph>
<glyph name="Oslash" format="1">
  <advance width="831"/>
  <unicode hex="00D8"/>
  <outline>
    <contour>
      <point x="45" y="0" type="line"/>
      <point x="205" y="0" type="line"/>
      <point x="775" y="687" type="line"/>
      <point x="615" y="687" type="line"/>
    </contour>
    <component base="O" xOffset="2"/>
  </outline>
</glyph>
<glyph name="germandbls" format="1">
  <advance width="649"/>
  <unicode hex="00DF"/>
  <outline>
    <contour>
      <point x="58" y="0" type="line"/>
      <point x="251" y="0" type="line"/>
      <point x="251" y="463" type="line" smooth="yes"/>
      <point x="251" y="502"/>
      <point x="281" y="524"/>
      <point x="321" y="524" type="curve" smooth="yes"/>
      <point x="364" y="524"/>
      <point x="390" y="502"/>
      <point x="390" y="472" type="curve" smooth="yes"/>
      <point x="390" y="442"/>
      <point x="361" y="420"/>
      <point x="321" y="420" type="curve" smooth="yes"/>
      <point x="320" y="420" type="line"/>
      <point x="320" y="273" type="line"/>
      <point x="350" y="273" type="line" smooth="yes"/>
      <point x="392" y="273"/>
      <point x="422" y="250"/>
      <point x="422" y="218" type="curve" smooth="yes"/>
      <point x="422" y="186"/>
      <point x="392" y="163"/>
      <point x="350" y="163" type="curve" smooth="yes"/>
      <point x="320" y="163" type="line"/>
      <point x="320" y="0" type="line"/>
      <point x="382" y="0" type="line" smooth="yes"/>
      <point x="522" y="0"/>
      <point x="622" y="75"/>
      <point x="622" y="185" type="curve" smooth="yes"/>
      <point x="622" y="271"/>
      <point x="579" y="335"/>
      <point x="505" y="360" type="curve"/>
      <point x="559" y="380"/>
      <point x="590" y="436"/>
      <point x="590" y="514" type="curve" smooth="yes"/>
      <point x="590" y="637"/>
      <point x="480" y="724"/>
      <point x="324" y="724" type="curve" smooth="yes"/>
      <point x="168" y="724"/>
      <point x="58" y="637"/>
      <point x="58" y="514" type="curve" smooth="yes"/>
    </contour>
  </outline>
</glyph>
<glyph name="eth" format="1">
  <advance width="631"/>
  <unicode hex="00F0"/>
  <outline>
    <contour>
      <point x="314" y="149" type="curve" smooth="yes"/>
      <point x="255" y="149"/>
      <point x="213" y="188"/>
      <point x="213" y="244" type="curve" smooth="yes"/>
      <point x="213" y="299"/>
      <point x="254" y="338"/>
      <point x="313" y="338" type="curve" smooth="yes"/>
      <point x="374" y="338"/>
      <point x="414" y="297"/>
      <point x="414" y="243" type="curve" smooth="yes"/>
      <point x="414" y="188"/>
      <point x="373" y="149"/>
    </contour>
    <contour>
      <point x="246" y="584"/>
      <point x="349" y="513"/>
      <point x="392" y="425" type="curve"/>
      <point x="356" y="466"/>
      <point x="312" y="492"/>
      <point x="249" y="492" type="curve" smooth="yes"/>
      <point x="120" y="492"/>
      <point x="29" y="392"/>
      <point x="29" y="251" type="curve" smooth="yes"/>
      <point x="29" y="97"/>
      <point x="147" y="-12"/>
      <point x="313" y="-12" type="curve" smooth="yes"/>
      <point x="480" y="-12"/>
      <point x="598" y="112"/>
      <point x="598" y="288" type="curve" smooth="yes"/>
      <point x="598" y="460"/>
      <point x="501" y="573"/>
      <point x="295" y="732" type="curve"/>
      <point x="127" y="660" type="line"/>
    </contour>
    <contour>
      <point x="188" y="511" type="line"/>
      <point x="473" y="638" type="line"/>
      <point x="434" y="726" type="line"/>
      <point x="149" y="599" type="line"/>
    </contour>
  </outline>
</glyph>
<glyph name="OE" format="1">
  <advance width="1069"/>
  <unicode hex="0152"/>
  <outline>
    <contour>
      <point x="39" y="344" type="curve" smooth="yes"/>
      <point x="39" y="151"/>
      <point x="210" y="0"/>
      <point x="413" y="0" type="curve" smooth="yes"/>
      <point x="1013" y="0" type="line"/>
      <point x="1013" y="173" type="line"/>
      <point x="654" y="173" type="line"/>
      <point x="654" y="264" type="line"/>
      <point x="981" y="264" type="line"/>
      <point x="981" y="437" type="line"/>
      <point x="654" y="437" type="line"/>
      <point x="654" y="514" type="line"/>
      <point x="1013" y="514" type="line"/>
      <point x="1013" y="687" type="line"/>
      <point x="413" y="687" type="line" smooth="yes"/>
      <point x="210" y="687"/>
      <point x="39" y="537"/>
    </contour>
    <contour>
      <point x="239" y="344" type="curve" smooth="yes"/>
      <point x="239" y="441"/>
      <point x="319" y="511"/>
      <point x="413" y="511" type="curve" smooth="yes"/>
      <point x="460" y="511" type="line"/>
      <point x="460" y="176" type="line"/>
      <point x="413" y="176" type="line" smooth="yes"/>
      <point x="319" y="176"/>
      <point x="239" y="246"/>
    </contour>
  </outline>
</glyph>
<glyph name="jdotless" format="1">
  <advance width="294"/>
  <unicode hex="0237"/>
  <outline>
    <contour>
      <point x="59" y="-178" type="curve" smooth="yes"/>
      <point x="167" y="-178"/>
      <point x="243" y="-102"/>
      <point x="243" y="6" type="curve" smooth="yes"/>
      <point x="243" y="517" type="line"/>
      <point x="50" y="517" type="line"/>
      <point x="50" y="30" type="line" smooth="yes"/>
      <point x="50" y="-1"/>
      <point x="32" y="-23"/>
      <point x="6" y="-23" type="curve" smooth="yes"/>
      <point x="-10" y="-23"/>
      <point x="-29" y="-20"/>
      <point x="-41" y="-15" type="curve"/>
      <point x="-59" y="-154" type="line"/>
      <point x="-31" y="-168"/>
      <point x="18" y="-178"/>
    </contour>
    <contour>
      <point x="144" y="517" type="move" name="top"/>
    </contour>
  </outline>
</glyph>
<glyph name="circumflex" format="1">
  <advance width="412"/>
  <unicode hex="02C6"/>
  <outline>
    <contour>
      <point x="20" y="574" type="line"/>
      <point x="132" y="574" type="line"/>
      <point x="205" y="641" type="line"/>
      <point x="279" y="574" type="line"/>
      <point x="392" y="574" type="line"/>
      <point x="283" y="728" type="line"/>
      <point x="128" y="728" type="line"/>
    </contour>
    <contour>
      <point x="205" y="517" type="move" name="_top"/>
    </contour>
    <contour>
      <point x="205" y="704" type="move" name="top"/>
    </contour>
  </outline>
</glyph>
<glyph name="caron" format="1">
  <advance width="413"/>
  <unicode hex="02C7"/>
  <outline>
    <contour>
      <point x="129" y="574" type="line"/>
      <point x="284" y="574" type="line"/>
      <point x="393" y="728" type="line"/>
      <point x="280" y="728" type="line"/>
      <point x="206" y="661" type="line"/>
      <point x="133" y="728" type="line"/>
      <point x="21" y="728" type="line"/>
    </contour>
    <contour>
      <point x="206" y="517" type="move" name="_top"/>
    </contour>
    <contour>
      <point x="206" y="704" type="move" name="top"/>
    </contour>
  </outline>
</glyph>
<glyph name="breve" format="1">
  <advance width="393"/>
  <unicode hex="02D8"/>
  <outline>
    <contour>
      <point x="196" y="575" type="curve" smooth="yes"/>
      <point x="258" y="575"/>
      <point x="320" y="599"/>
      <point x="367" y="646" type="curve"/>
      <point x="293" y="720" type="line"/>
      <point x="266" y="693"/>
      <point x="230" y="677"/>
      <point x="196" y="677" type="curve" smooth="yes"/>
      <point x="162" y="677"/>
      <point x="126" y="693"/>
      <point x="99" y="720" type="curve"/>
      <point x="25" y="646" type="line"/>
      <point x="73" y="599"/>
      <point x="134" y="575"/>
    </contour>
    <contour>
      <point x="196" y="517" type="move" name="_top"/>
    </contour>
    <contour>
      <point x="196" y="704" type="move" name="top"/>
    </contour>
  </outline>
</glyph>
<glyph name="dotaccent" format="1">
  <advance width="257"/>
  <unicode hex="02D9"/>
  <outline>
    <contour>
      <point x="129" y="575" type="curve" smooth="yes"/>
      <point x="176" y="575"/>
      <point x="215" y="614"/>
      <point x="215" y="662" type="curve" smooth="yes"/>
      <point x="215" y="708"/>
      <point x="176" y="748"/>
      <point x="129" y="748" type="curve" smooth="yes"/>
      <point x="79" y="748"/>
      <point x="42" y="708"/>
      <point x="42" y="662" type="curve" smooth="yes"/>
      <point x="42" y="614"/>
      <point x="79" y="575"/>
    </contour>
    <contour>
      <point x="129" y="517" type="move" name="_top"/>
    </contour>
    <contour>
      <point x="129" y="0" type="move" name="bottom"/>
    </contour>
    <contour>
      <point x="129" y="704" type="move" name="top"/>
    </contour>
  </outline>
</glyph>
<glyph name="ogonek" format="1">
  <advance width="277"/>
  <unicode hex="02DB"/>
  <outline>
    <contour>
      <point x="154" y="-173" type="curve" smooth="yes"/>
      <point x="193" y="-173"/>
      <point x="225" y="-158"/>
      <point x="247" y="-138" type="curve"/>
      <point x="225" y="-56" type="line"/>
      <point x="218" y="-62"/>
      <point x="206" y="-66"/>
      <point x="195" y="-66" type="curve" smooth="yes"/>
      <point x="172" y="-66"/>
      <point x="156" y="-57"/>
      <point x="156" y="-36" type="curve" smooth="yes"/>
      <point x="156" y="-15"/>
      <point x="171" y="0"/>
      <point x="194" y="0" type="curve"/>
      <point x="93" y="38" type="line"/>
      <point x="60" y="15"/>
      <point x="42" y="-16"/>
      <point x="42" y="-59" type="curve" smooth="yes"/>
      <point x="42" y="-129"/>
      <point x="88" y="-173"/>
    </contour>
    <contour>
      <point x="194" y="0" type="move" name="_bottom"/>
    </contour>
  </outline>
</glyph>
<glyph name="tilde" format="1">
  <advance width="457"/>
  <unicode hex="02DC"/>
  <outline>
    <contour>
      <point x="298" y="571" type="curve" smooth="yes"/>
      <point x="371" y="571"/>
      <point x="409" y="617"/>
      <point x="419" y="712" type="curve"/>
      <point x="329" y="725" type="line"/>
      <point x="323" y="697"/>
      <point x="312" y="683"/>
      <point x="292" y="683" type="curve" smooth="yes"/>
      <point x="266" y="683"/>
      <point x="213" y="724"/>
      <point x="159" y="724" type="curve" smooth="yes"/>
      <point x="86" y="724"/>
      <point x="49" y="678"/>
      <point x="38" y="583" type="curve"/>
      <point x="128" y="570" type="line"/>
      <point x="134" y="599"/>
      <point x="145" y="612"/>
      <point x="165" y="612" type="curve" smooth="yes"/>
      <point x="192" y="612"/>
      <point x="243" y="571"/>
    </contour>
    <contour>
      <point x="229" y="517" type="move" name="_top"/>
    </contour>
    <contour>
      <point x="229" y="704" type="move" name="top"/>
    </contour>
  </outline>
</glyph>
<glyph name="dotaccentcomb" format="1">
  <advance width="278"/>
  <unicode hex="0307"/>
  <outline>
    <contour>
      <point x="140" y="572" type="curve" smooth="yes"/>
      <point x="194" y="572"/>
      <point x="238" y="618"/>
      <point x="238" y="672" type="curve" smooth="yes"/>
      <point x="238" y="724"/>
      <point x="194" y="770"/>
      <point x="140" y="770" type="curve" smooth="yes"/>
      <point x="84" y="770"/>
      <point x="40" y="724"/>
      <point x="40" y="672" type="curve" smooth="yes"/>
      <point x="40" y="618"/>
      <point x="84" y="572"/>
    </contour>
    <contour>
      <point x="140" y="517" type="move" name="_top"/>
    </contour>
  </outline>
</glyph>
<glyph name="commaaccentcomb" format="1">
  <advance width="238"/>
  <unicode hex="0326"/>
  <outline>
    <contour>
      <point x="108" y="-301" type="line"/>
      <point x="167" y="-252"/>
      <point x="201" y="-192"/>
      <point x="201" y="-137" type="curve" smooth="yes"/>
      <point x="201" y="-71"/>
      <point x="165" y="-23"/>
      <point x="114" y="-23" type="curve" smooth="yes"/>
      <point x="68" y="-23"/>
      <point x="30" y="-62"/>
      <point x="30" y="-110" type="curve" smooth="yes"/>
      <point x="30" y="-156"/>
      <point x="67" y="-195"/>
      <point x="111" y="-195" type="curve"/>
      <point x="105" y="-219"/>
      <point x="87" y="-245"/>
      <point x="62" y="-265" type="curve"/>
    </contour>
    <contour>
      <point x="114" y="0" type="move" name="_bottom"/>
    </contour>
    <contour>
      <point x="114" y="517" type="move" name="_top"/>
    </contour>
  </outline>
</glyph>
<glyph name="capital_V" format="1">
  <advance width="801"/>
  <outline>
    <contour>
      <point x="291" y="0" type="line"/>
      <point x="510" y="0" type="line"/>
      <point x="774" y="687" type="line"/>
      <point x="555" y="687" type="line"/>
    </contour>
    <contour>
      <point x="291" y="0" type="line"/>
      <point x="510" y="0" type="line"/>
      <point x="246" y="687" type="line"/>
      <point x="27" y="687" type="line"/>
    </contour>
  </outline>
</glyph>
<glyph name="lowercase_loop" format="1">
  <advance width="577"/>
  <outline>
    <contour>
      <point x="287" y="-12" type="curve" smooth="yes"/>
      <point x="426" y="-12"/>
      <point x="524" y="100"/>
      <point x="524" y="259" type="curve" smooth="yes"/>
      <point x="524" y="417"/>
      <point x="426" y="529"/>
      <point x="287" y="529" type="curve" smooth="yes"/>
      <point x="151" y="529"/>
      <point x="54" y="417"/>
      <point x="54" y="259" type="curve" smooth="yes"/>
      <point x="54" y="100"/>
      <point x="151" y="-12"/>
    </contour>
    <contour>
      <point x="226" y="148" type="curve" smooth="yes"/>
      <point x="165" y="148"/>
      <point x="122" y="194"/>
      <point x="122" y="259" type="curve" smooth="yes"/>
      <point x="122" y="323"/>
      <point x="165" y="369"/>
      <point x="226" y="369" type="curve" smooth="yes"/>
      <point x="293" y="369"/>
      <point x="340" y="323"/>
      <point x="340" y="259" type="curve" smooth="yes"/>
      <point x="340" y="194"/>
      <point x="293" y="148"/>
    </contour>
    <contour>
      <point x="122" y="259" type="move" name="_loop_right"/>
    </contour>
  </outline>
</glyph>
<glyph name="lowercase_nh_shoulder" format="1">
  <advance width="437"/>
  <outline>
    <contour>
      <point x="204" y="0" type="line"/>
      <point x="388" y="0" type="line"/>
      <point x="388" y="329" type="line" smooth="yes"/>
      <point x="388" y="446"/>
      <point x="309" y="529"/>
      <point x="198" y="529" type="curve" smooth="yes"/>
      <point x="99" y="529"/>
      <point x="25" y="467"/>
      <point x="20" y="379" type="curve"/>
      <point x="52" y="290" type="line"/>
      <point x="52" y="336"/>
      <point x="83" y="369"/>
      <point x="126" y="369" type="curve" smooth="yes"/>
      <point x="172" y="369"/>
      <point x="204" y="334"/>
      <point x="204" y="284" type="curve" smooth="yes"/>
    </contour>
    <contour>
      <point x="52" y="290" type="move" name="_shoulder"/>
    </contour>
  </outline>
</glyph>
